<svg xmlns="http://www.w3.org/2000/svg" viewBox="0 0 650 370" role="img"><title>Global SSP2 population, GDP and CO₂ emissions</title>
<style>text{font-family:Arial,sans-serif;fill:#526771;font-size:13px}.grid{stroke:#d7e2e5;stroke-width:1}.vgrid{stroke:#e7edef}.trajectory{stroke-width:3;stroke-linecap:round;stroke-linejoin:round}.endpoint{font-weight:700;paint-order:stroke;stroke:white;stroke-width:3px}.plot-bg{fill:#f5f9fa;stroke:none}</style>
<text x="4" y="42" style="font-size:17px;font-weight:700;fill:#153e51">Population</text><text x="4" y="63" style="font-size:11px">billion people</text>
<rect x="172.00" y="12.00" width="446.5" height="82.56" rx="8" class="plot-bg" />
<line x1="172.00" y1="80.80" x2="618.50" y2="80.80" class="grid" />
<text x="160.60" y="82.72" text-anchor="end" class="tick">8</text>
<line x1="172.00" y1="53.28" x2="618.50" y2="53.28" class="grid" />
<text x="160.60" y="55.20" text-anchor="end" class="tick">9</text>
<line x1="172.00" y1="25.76" x2="618.50" y2="25.76" class="grid" />
<text x="160.60" y="27.68" text-anchor="end" class="tick">10</text>
<line x1="172.00" y1="12.00" x2="172.00" y2="94.56" class="vgrid" />
<text x="172.00" y="109.28" text-anchor="middle" class="year">2020</text>
<line x1="339.39" y1="12.00" x2="339.39" y2="94.56" class="vgrid" />
<text x="339.39" y="109.28" text-anchor="middle" class="year">2050</text>
<line x1="618.50" y1="12.00" x2="618.50" y2="94.56" class="vgrid" />
<text x="618.50" y="109.28" text-anchor="middle" class="year">2100</text>
<polyline points="172.00,84.64 199.93,74.91 227.86,65.12 255.79,56.10 283.72,47.78 311.46,40.42 339.39,34.14 367.32,28.96 395.25,24.93 451.11,19.87 506.78,18.53 562.64,20.45 618.50,24.99" fill="none" stroke="#537eac" class="trajectory" />
<circle cx="618.50" cy="24.99" r="4" fill="#006b8f" />
<text x="609.00" y="20.51" text-anchor="end" fill="#006b8f" class="endpoint">10.0 bn</text>
<text x="4" y="165" style="font-size:17px;font-weight:700;fill:#153e51">GDP · PPP</text><text x="4" y="186" style="font-size:11px">trillion US$2017 / year</text>
<rect x="172.00" y="135.00" width="446.5" height="82.56" rx="8" class="plot-bg" />
<line x1="172.00" y1="203.80" x2="618.50" y2="203.80" class="grid" />
<text x="160.60" y="205.72" text-anchor="end" class="tick">200</text>
<line x1="172.00" y1="176.28" x2="618.50" y2="176.28" class="grid" />
<text x="160.60" y="178.20" text-anchor="end" class="tick">400</text>
<line x1="172.00" y1="148.76" x2="618.50" y2="148.76" class="grid" />
<text x="160.60" y="150.68" text-anchor="end" class="tick">600</text>
<line x1="172.00" y1="135.00" x2="172.00" y2="217.56" class="vgrid" />
<text x="172.00" y="232.28" text-anchor="middle" class="year">2020</text>
<line x1="339.39" y1="135.00" x2="339.39" y2="217.56" class="vgrid" />
<text x="339.39" y="232.28" text-anchor="middle" class="year">2050</text>
<line x1="618.50" y1="135.00" x2="618.50" y2="217.56" class="vgrid" />
<text x="618.50" y="232.28" text-anchor="middle" class="year">2100</text>
<polyline points="172.00,212.63 199.93,209.69 227.86,206.30 255.79,202.65 283.72,199.00 311.46,195.16 339.39,191.00 367.32,186.65 395.25,182.10 451.11,172.38 506.78,162.14 562.64,151.70 618.50,139.86" fill="none" stroke="#6f818a" class="trajectory" />
<circle cx="618.50" cy="139.86" r="4" fill="#6f818a" />
<text x="609.00" y="133" text-anchor="end" fill="#6f818a" class="endpoint">664</text>
<polyline points="172.00,212.63 199.93,209.69 227.86,206.36 255.79,202.84 283.72,199.38 311.46,195.74 339.39,191.83 367.32,187.61 395.25,183.13 451.11,173.46 506.78,163.22 562.64,152.73 618.50,140.70" fill="none" stroke="#008a82" class="trajectory" />
<circle cx="618.50" cy="140.70" r="4" fill="#008a82" />
<text x="609.00" y="159" text-anchor="end" fill="#008a82" class="endpoint">658</text>
<text x="4" y="288" style="font-size:17px;font-weight:700;fill:#153e51">Global CO₂</text><text x="4" y="309" style="font-size:11px">Gt CO₂ / year</text>
<rect x="172.00" y="258.00" width="446.5" height="82.56" rx="8" class="plot-bg" />
<line x1="172.00" y1="333.07" x2="618.50" y2="333.07" class="grid" />
<text x="160.60" y="334.99" text-anchor="end" class="tick">0</text>
<line x1="172.00" y1="303.06" x2="618.50" y2="303.06" class="grid" />
<text x="160.60" y="304.98" text-anchor="end" class="tick">20</text>
<line x1="172.00" y1="273.04" x2="618.50" y2="273.04" class="grid" />
<text x="160.60" y="274.96" text-anchor="end" class="tick">40</text>
<line x1="172.00" y1="258.00" x2="172.00" y2="340.56" class="vgrid" />
<text x="172.00" y="355.28" text-anchor="middle" class="year">2020</text>
<line x1="339.39" y1="258.00" x2="339.39" y2="340.56" class="vgrid" />
<text x="339.39" y="355.28" text-anchor="middle" class="year">2050</text>
<line x1="618.50" y1="258.00" x2="618.50" y2="340.56" class="vgrid" />
<text x="618.50" y="355.28" text-anchor="middle" class="year">2100</text>
<polyline points="172.00,267.73 199.93,268.18 227.86,271.31 255.79,276.11 283.72,279.57 311.46,282.58 339.39,284.75 367.32,286.86 395.25,285.97 451.11,284.56 506.78,285.78 562.64,287.95 618.50,291.09" fill="none" stroke="#6f818a" class="trajectory" />
<circle cx="618.50" cy="291.09" r="4" fill="#6f818a" />
<text x="609.00" y="286.61" text-anchor="end" fill="#6f818a" class="endpoint">27.9</text>
<polyline points="172.00,267.73 199.93,268.18 227.86,273.62 255.79,288.91 283.72,300.94 311.46,311.38 339.39,319.25 367.32,323.34 395.25,326.93 451.11,330.32 506.78,332.56 562.64,333.58 618.50,334.22" fill="none" stroke="#008a82" class="trajectory" />
<circle cx="618.50" cy="334.22" r="4" fill="#008a82" />
<text x="609.00" y="329.74" text-anchor="end" fill="#008a82" class="endpoint">-0.8</text>
</svg>
